<svg xmlns="http://www.w3.org/2000/svg" viewBox="0 0 512 512" role="img" aria-label="Male avatar">
  <rect width="512" height="512" fill="#020202"/>
  <path d="M164 512c7-70 42-106 92-106s85 36 92 106H164Z" fill="#151515"/>
  <path d="M189 328c18 58 53 90 67 90s49-32 67-90c19-2 34-22 34-47 0-19-9-35-23-42 0-70-34-118-78-118s-78 48-78 118c-14 7-23 23-23 42 0 25 15 45 34 47Z" fill="#e9e9e4"/>
  <path d="M188 331c16 50 46 77 68 87 0 0 34-17 55-62-45 13-89 4-123-25Z" fill="#cfcfca" opacity=".7"/>
  <path d="M170 196c16-70 58-99 102-93 51 6 82 42 88 102-54-22-118-18-190-9Z" fill="#191919"/>
  <path d="M177 204c43-25 100-32 164-17 12 3 18 15 15 27l-15 58c-3 12-13 20-25 20h-78c-15 0-27-12-27-27v-25c0-8-7-15-15-15h-27c-10 0-14-14-5-19l13-2Z" fill="#050505"/>
  <path d="M164 207c23 3 47 8 71 15-14-33-35-54-63-63-6 16-8 32-8 48Z" fill="#f4f4ef"/>
</svg>
