<svg xmlns="http://www.w3.org/2000/svg" viewBox="0 0 1024 1024" role="img" aria-label="Female avatar">
  <defs>
    <linearGradient id="skin" x1="282" y1="330" x2="730" y2="820" gradientUnits="userSpaceOnUse">
      <stop offset="0" stop-color="#f5f5f0"/>
      <stop offset=".58" stop-color="#eeeeea"/>
      <stop offset="1" stop-color="#cfcfca"/>
    </linearGradient>
    <linearGradient id="hair" x1="190" y1="122" x2="822" y2="907" gradientUnits="userSpaceOnUse">
      <stop offset="0" stop-color="#242424"/>
      <stop offset=".5" stop-color="#171717"/>
      <stop offset="1" stop-color="#0c0c0c"/>
    </linearGradient>
    <linearGradient id="shirt" x1="310" y1="792" x2="828" y2="1024" gradientUnits="userSpaceOnUse">
      <stop offset="0" stop-color="#171717"/>
      <stop offset="1" stop-color="#070707"/>
    </linearGradient>
  </defs>
  <rect width="1024" height="1024" fill="#000"/>
  <path d="M211 1024c25-153 121-245 289-245 169 0 289 93 350 245H211Z" fill="url(#shirt)"/>
  <path d="M350 238c-101 97-127 255-110 404 14 126 4 215-50 287 99-48 151-133 150-253l10-438Z" fill="url(#hair)"/>
  <path d="M653 219c128 119 161 290 137 448-18 120 9 209 79 270-119-32-194-116-214-253l-2-465Z" fill="url(#hair)"/>
  <path d="M374 684c25 78 84 128 138 128s113-50 138-128v-87H374v87Z" fill="url(#skin)"/>
  <path d="M395 732c46 51 103 80 166 80 0 0-75 48-156 17-40-15-64-48-64-48l54-49Z" fill="#d6d6d1" opacity=".72"/>
  <path d="M316 404c0-129 75-214 196-214 122 0 198 85 198 214 0 189-88 304-198 304s-196-116-196-304Z" fill="url(#skin)"/>
  <path d="M281 431c-20 4-32 27-27 59 5 33 25 60 49 61 2-45-5-84-22-120Z" fill="#e1e1dc"/>
  <path d="M744 431c20 4 32 27 27 59-5 33-25 60-49 61-2-45 5-84 22-120Z" fill="#e1e1dc"/>
  <path d="M286 391c11-147 82-244 220-263 133-18 239 60 267 203 15 75 9 150-9 225-49-142-80-224-149-274-65 82-157 101-329 109Z" fill="url(#hair)"/>
  <path d="M381 363c75-54 128-111 180-202 29 78-9 148-93 184-33 14-61 17-87 18Z" fill="#f3f3ee"/>
  <path d="M236 404c155-36 287-47 433-12 50 12 86 24 122 38l-10 35c-61-12-117-25-177-34-113-17-234-9-363 23l-5-50Z" fill="#040404"/>
  <path d="M333 443c-7 58 24 85 84 85h67c39 0 58-24 66-89-76-13-149-12-217 4Z" fill="#010101"/>
  <path d="M568 439c4 66 24 89 65 89h72c56 0 84-24 83-78-65-22-139-28-220-11Z" fill="#010101"/>
  <path d="M510 455c21-12 40-12 61 0l-3 28c-18-10-37-10-55 0l-3-28Z" fill="#010101"/>
  <path d="M333 261c58-100 158-151 269-125 104 24 162 103 184 210-115-94-260-127-453-85Z" fill="#171717"/>
  <path d="M391 848h246c47 35 82 94 96 176H292c14-82 51-143 99-176Z" fill="#101010"/>
</svg>
