<svg xmlns="http://www.w3.org/2000/svg" viewBox="0 0 512 512" role="img" aria-label="Female avatar">
  <rect width="512" height="512" fill="#020202"/>
  <path d="M141 512c10-76 52-114 115-114s105 38 115 114H141Z" fill="#151515"/>
  <path d="M190 320c18 60 52 92 66 92s48-32 66-92c18-3 31-23 31-48 0-18-8-34-21-41-1-69-33-116-76-116s-75 47-76 116c-13 7-21 23-21 41 0 25 13 45 31 48Z" fill="#eeeeea"/>
  <path d="M190 321c17 50 45 79 66 91 0 0 33-18 53-62-44 14-86 3-119-29Z" fill="#cfcfca" opacity=".7"/>
  <path d="M146 447c-28-73-42-171 8-255 26-44 61-75 114-70 54 5 91 42 104 99 16 73 3 157-19 226-11-70-31-120-65-153-40 28-81 24-122 0-22 35-30 88-20 153Z" fill="#191919"/>
  <path d="M162 202c54-24 105-26 154-5 14 6 21 21 17 35l-12 42c-4 13-16 22-30 22h-70c-15 0-27-12-27-27v-20c0-8-7-15-15-15h-29c-10 0-13-14-4-19l16-13Z" fill="#050505"/>
  <path d="M166 194c34-47 83-73 139-61-18 34-54 55-139 61Z" fill="#202020"/>
  <path d="M184 195c20-23 44-38 72-45-7 24-27 39-72 45Z" fill="#f4f4ef"/>
</svg>
