<svg xmlns="http://www.w3.org/2000/svg" viewBox="0 0 1024 1024" role="img" aria-label="Male avatar">
  <defs>
    <linearGradient id="skin" x1="242" y1="322" x2="754" y2="772" gradientUnits="userSpaceOnUse">
      <stop offset="0" stop-color="#f4f4ef"/>
      <stop offset=".58" stop-color="#ecece7"/>
      <stop offset="1" stop-color="#cfcfca"/>
    </linearGradient>
    <linearGradient id="hair" x1="300" y1="120" x2="724" y2="442" gradientUnits="userSpaceOnUse">
      <stop offset="0" stop-color="#252525"/>
      <stop offset="1" stop-color="#121212"/>
    </linearGradient>
    <linearGradient id="shirt" x1="284" y1="780" x2="836" y2="1024" gradientUnits="userSpaceOnUse">
      <stop offset="0" stop-color="#191919"/>
      <stop offset="1" stop-color="#070707"/>
    </linearGradient>
  </defs>
  <rect width="1024" height="1024" fill="#000"/>
  <path d="M273 1024c10-148 92-242 233-242 146 0 262 99 331 242H273Z" fill="url(#shirt)"/>
  <path d="M372 673c25 77 85 126 139 126 55 0 115-49 141-126v-83H372v83Z" fill="url(#skin)"/>
  <path d="M396 719c45 51 102 80 165 80 0 0-74 49-156 18-39-15-62-47-62-47l53-51Z" fill="#d5d5d0" opacity=".72"/>
  <path d="M316 392c0-130 75-214 194-214 120 0 198 85 198 215 0 190-86 305-196 305-111 0-196-116-196-306Z" fill="url(#skin)"/>
  <path d="M279 417c-21 3-34 26-29 60 5 33 26 61 51 62 2-45-5-85-22-122Z" fill="#dfdfda"/>
  <path d="M746 417c21 3 34 26 29 60-5 33-26 61-51 62-2-45 5-85 22-122Z" fill="#dfdfda"/>
  <path d="M311 358c9-101 72-180 171-213 93-31 198 0 246 88 25 46 32 93 28 151-47-78-110-107-202-93-91 13-166 40-243 67Z" fill="url(#hair)"/>
  <path d="M306 372c80-96 194-132 346-102-21 49-56 77-113 83-72 8-142 3-233 19Z" fill="#f4f4ef"/>
  <path d="M327 367c99-26 186-71 251-154 14 84-31 140-120 166-42 13-85 13-131-12Z" fill="url(#hair)"/>
  <path d="M227 372c144-5 287 3 392 22 78 14 125 31 186 47l-7 27c-60-11-118-24-180-33-125-18-253-21-391-14v-49Z" fill="#040404"/>
  <path d="M324 426c-8 58 22 86 84 86h66c39 0 59-25 67-91-74-14-146-17-217 5Z" fill="#010101"/>
  <path d="M558 423c4 67 25 90 66 90h70c57 0 87-25 85-80-66-20-139-27-221-10Z" fill="#010101"/>
  <path d="M501 438c21-12 40-12 61 0l-3 29c-18-11-37-11-55 0l-3-29Z" fill="#010101"/>
  <path d="M305 234c15-72 72-113 148-124 119-17 222 41 275 132-134-54-280-58-423-8Z" fill="#171717"/>
  <path d="M413 844h201c50 31 89 93 104 180H309c14-85 53-148 104-180Z" fill="#101010"/>
</svg>
